 <svg  version="1.0" xmlns="http://www.w3.org/2000/svg"  width="300.000000pt" height="135.000000pt" viewBox="0 0 300.000000 135.000000"  preserveAspectRatio="xMidYMid meet">  <g transform="translate(0.000000,135.000000) scale(0.100000,-0.100000)" fill="#fb0e0e" stroke="none"> <path d="M1678 843 c-110 -108 -114 -111 -165 -115 -43 -4 -59 -12 -99 -46 -56 -50 -95 -59 -46 -11 36 36 33 54 -9 45 -39 -8 -37 -2 14 27 51 31 147 112 177 150 19 24 19 28 6 33 -33 13 -83 -23 -218 -153 -76 -73 -145 -133 -154 -133 -11 0 -7 8 15 29 49 46 37 71 -25 51 -26 -9 -38 -9 -49 0 -10 9 -21 8 -44 -4 -37 -20 -41 -20 -41 -1 0 8 -6 15 -14 15 -23 0 -96 -52 -96 -68 0 -12 4 -12 23 2 51 36 60 36 25 -1 -67 -69 -40 -74 47 -8 74 55 92 58 41 6 -55 -56 -28 -61 39 -6 65 52 110 64 58 14 -48 -44 -44 -59 15 -55 36 2 61 13 106 45 63 44 87 48 43 7 -15 -14 -27 -30 -27 -36 0 -18 30 -23 58 -9 15 7 30 15 35 17 4 2 7 -3 7 -12 0 -20 17 -20 50 -1 32 18 40 18 40 0 0 -18 23 -19 53 -4 16 9 22 9 25 0 5 -16 28 -14 73 10 23 11 42 19 44 17 1 -2 -44 -47 -101 -101 -74 -69 -100 -99 -89 -103 10 -4 58 34 137 108 124 115 164 148 182 148 6 0 -4 -15 -22 -33 -54 -55 -35 -78 38 -46 51 23 50 23 50 4 0 -18 28 -19 67 -3 41 17 93 18 93 1 0 -18 51 -17 76 1 10 8 30 12 44 9 17 -3 38 5 67 26 56 41 91 42 43 2 -29 -24 -33 -31 -22 -44 10 -11 20 -13 40 -7 56 16 102 44 102 62 0 15 -6 14 -47 -12 -56 -36 -79 -39 -40 -5 27 24 37 55 17 55 -5 0 -10 7 -10 15 0 24 -17 18 -76 -30 -57 -47 -85 -52 -58 -10 20 31 11 45 -29 45 -34 0 -61 -15 -102 -56 -14 -14 -30 -22 -36 -18 -8 4 -8 9 0 17 6 6 11 21 11 34 0 19 -5 23 -32 23 -33 0 -98 -32 -98 -48 0 -10 -79 -56 -86 -50 -2 3 10 17 26 33 42 40 40 59 -5 52 -19 -3 -35 -4 -35 -3 0 2 25 23 55 46 30 23 55 49 55 56 0 8 -2 14 -5 14 -2 0 -53 -36 -112 -81 -59 -44 -120 -87 -136 -95 -45 -24 -54 -11 -14 20 35 27 49 56 27 56 -5 0 -32 -20 -60 -45 -28 -25 -58 -45 -68 -44 -10 0 41 56 132 145 114 110 147 147 138 156 -9 9 -38 -15 -124 -99z m-164 39 c-12 -9 -46 -38 -76 -64 -53 -46 -77 -60 -63 -37 11 18 138 119 149 119 6 0 1 -8 -10 -18z m26 -176 c0 -8 -97 -66 -110 -66 -18 0 6 28 45 52 27 16 65 24 65 14z m437 -29 c-8 -12 -25 -27 -38 -34 -38 -19 -37 6 0 39 36 32 60 29 38 -5z m173 24 c0 -16 -40 -59 -60 -64 -30 -8 -25 17 11 47 31 27 49 33 49 17z"/> <path d="M560 889 c-30 -23 -98 -83 -150 -134 -101 -98 -135 -125 -160 -125 -10 0 -3 11 19 32 30 28 32 33 17 43 -9 7 -16 17 -16 24 0 18 -28 13 -42 -8 -19 -27 -108 -81 -135 -81 -35 0 -27 16 15 28 48 14 88 50 73 65 -28 28 -147 -48 -139 -88 9 -48 58 -44 138 10 65 44 95 47 50 5 -39 -36 -31 -54 19 -45 l36 7 -42 -44 c-77 -80 -110 -146 -83 -163 28 -18 139 100 170 179 7 21 16 26 42 26 18 0 39 4 47 9 10 7 19 5 26 -6 11 -15 15 -14 45 1 31 15 35 15 43 0 13 -22 49 -11 119 37 63 43 76 40 28 -6 -16 -16 -30 -32 -30 -37 0 -14 27 -9 41 9 23 27 91 73 108 73 10 0 5 -9 -16 -26 -34 -26 -44 -64 -18 -64 25 0 105 43 105 57 0 18 -6 16 -40 -9 -16 -12 -32 -19 -36 -16 -3 4 6 14 20 23 16 11 26 27 26 41 0 28 -18 31 -60 9 -27 -14 -30 -14 -30 0 0 26 -29 17 -100 -30 -37 -25 -74 -45 -81 -45 -7 0 7 20 31 45 l44 45 -58 0 c-61 0 -81 -7 -136 -51 -36 -29 -100 -49 -100 -32 0 5 42 38 93 73 100 69 217 175 217 197 0 25 -45 13 -100 -28z m59 4 c0 -9 -114 -106 -150 -129 -13 -8 12 19 56 60 75 71 96 87 94 69z m-44 -193 c-10 -17 -94 -62 -107 -58 -17 6 70 68 94 68 11 0 16 -4 13 -10z m-280 -127 c-55 -88 -115 -152 -115 -125 0 12 122 163 128 157 3 -2 -3 -17 -13 -32z"/> <path d="M1683 773 c-17 -6 -16 -33 1 -33 17 0 38 24 29 33 -7 8 -12 8 -30 0z"/> </g> </svg> 